PathFileType        4      (X/Y/Z)      C:\Users\pc\Desktop\IMUTRC\Sujet_01\Sujet_01_Tpose.trc         
DataRate	CameraRate	NumFrames	NumMarkers	Units	OrigDataRate	OrigDataStartFrame	OrigNumFrames
60.0	60.0	4	64	mm	60.0	15	114
Frame#	Time	pHipOrigin			pRightASI			pLeftASI			pRightCSI			pLeftCSI			pRightIschialTub			pLeftIschialTub			pSacrum			pL5SpinalProcess			pL3SpinalProcess			pT12SpinalProcess			pIJ			pT4SpinalProcess			pT8SpinalProcess			pPX			pC7SpinalProcess			pTopOfHead			pRightAuricularis			pLeftAuricularis			pBackOfHead			pRightAcromion			pLeftAcromion			pRightArmLatEpicondyle			pRightArmMedEpicondyle			pLeftArmLatEpicondyle			pLeftArmMedEpicondyle			pRightUlnarStyloid			pRightRadialStyloid			pRightOlecranon			pLeftUlnarStyloid			pLeftRadialStyloid			pLeftOlecranon			pRightTopOfHand			pRightPinky			pRightBallHand			pLeftTopOfHand			pLeftPinky			pLeftBallHand			pRightGreaterTrochanter			pRightKneeLatEpicondyle			pRightKneeMedEpicondyle			pRightPatella			pLeftGreaterTrochanter			pLeftKneeLatEpicondyle			pLeftKneeMedEpicondyle			pLeftPatella			pRightTibialTub			pRightLatMalleolus			pRightMedMalleolus			pLeftTibialTub			pLeftLatMalleolus			pLeftMedMalleolus			pRightHeelFoot			pRightFirstMetatarsal			pRightFifthMetatarsal			pRightPivotFoot			pRightHeelCenter			pRightToe			pLeftHeelFoot			pLeftFirstMetatarsal			pLeftFifthMetatarsal			pLeftPivotFoot			pLeftHeelCenter			pLeftToe			
		X1	Y1	Z1	X2	Y2	Z2	X3	Y3	Z3	X4	Y4	Z4	X5	Y5	Z5	X6	Y6	Z6	X7	Y7	Z7	X8	Y8	Z8	X9	Y9	Z9	X10	Y10	Z10	X11	Y11	Z11	X12	Y12	Z12	X13	Y13	Z13	X14	Y14	Z14	X15	Y15	Z15	X16	Y16	Z16	X17	Y17	Z17	X18	Y18	Z18	X19	Y19	Z19	X20	Y20	Z20	X21	Y21	Z21	X22	Y22	Z22	X23	Y23	Z23	X24	Y24	Z24	X25	Y25	Z25	X26	Y26	Z26	X27	Y27	Z27	X28	Y28	Z28	X29	Y29	Z29	X30	Y30	Z30	X31	Y31	Z31	X32	Y32	Z32	X33	Y33	Z33	X34	Y34	Z34	X35	Y35	Z35	X36	Y36	Z36	X37	Y37	Z37	X38	Y38	Z38	X39	Y39	Z39	X40	Y40	Z40	X41	Y41	Z41	X42	Y42	Z42	X43	Y43	Z43	X44	Y44	Z44	X45	Y45	Z45	X46	Y46	Z46	X47	Y47	Z47	X48	Y48	Z48	X49	Y49	Z49	X50	Y50	Z50	X51	Y51	Z51	X52	Y52	Z52	X53	Y53	Z53	X54	Y54	Z54	X55	Y55	Z55	X56	Y56	Z56	X57	Y57	Z57	X58	Y58	Z58	X59	Y59	Z59	X60	Y60	Z60	X61	Y61	Z61	X62	Y62	Z62	X63	Y63	Z63	X64	Y64	Z64	
15	0.233	0.0	1249.97542	7.653891985579342E-14	28.560419999999983	1347.9509	131.3274900000001	69.60420000000002	1348.32918	-114.6199599999999	-15.446580000000013	1403.93688	101.56917000000008	18.28371000000001	1404.25212	-100.62345999999991	-52.20315000000001	1191.71973	43.187390000000065	-35.36952999999999	1191.84583	-57.940449999999935	-62.60595	1261.76526	-10.40279999999993	-40.28721	1352.11202	-6.746059999999923	-36.37828	1456.39222	-7.061299999999916	-39.97198	1551.65667	-9.078809999999912	103.58668	1743.95088	12.672500000000118	-33.35201	1729.45	-11.537649999999896	-41.48511	1646.79502	-11.159369999999903	97.09281	1630.65491	13.996500000000111	-28.37128	1778.87907	-9.646229999999894	49.99649	2015.68467	1.1979000000001296	44.00699999999999	1919.22232	63.803850000000125	40.161120000000004	1924.07696	-67.83887999999989	-9.52014	1925.90534	-0.37827999999988327	-37.13485000000002	1748.55333	169.47110000000012	14.94221000000002	1763.55858	-179.36951999999988	-105.47810000000004	1629.7092	369.3309800000001	-60.33625000000004	1600.20307	367.81785000000013	32.97373000000005	1650.07347	-396.69349999999986	66.64098000000004	1612.56034	-377.5271299999999	-94.69702000000007	1521.52007	556.9596900000001	-120.73555000000007	1554.43075	570.0104800000001	-71.05429000000004	1601.08574	358.5498900000001	90.09457000000008	1533.12077	-569.0647699999998	79.56567000000007	1570.44476	-589.8073299999999	53.085810000000045	1615.58661	-373.8703799999999	-208.9386900000001	1472.65842	681.8563600000001	-138.5148800000001	1478.14354	642.5779000000001	-110.52189000000007	1520.7635	597.7512800000001	74.33275000000009	1503.55159	-740.9947099999999	92.74255000000008	1491.00518	-663.3204599999999	98.35376000000007	1529.21183	-607.3975199999999	-31.64974000000002	1220.02796	140.7845800000001	-47.726790000000015	876.29418	106.29772000000006	-28.308230000000002	876.60941	41.926440000000056	-1.3239900000000102	876.35723	82.84413000000006	6.998250000000017	1219.27139	-142.6759999999999	-7.754819999999986	875.66371	-106.86513999999994	-0.25218999999999514	876.9877	-40.09806999999994	33.604200000000006	876.9877	-75.46759999999995	10.33974999999999	839.53761	87.25744000000006	-85.74430000000001	472.035	96.46234000000001	-68.15411	470.90015	38.96322000000002	47.789840000000005	842.62693	-81.20489999999994	-25.092819999999982	473.54814	-134.60594999999998	-17.02276999999999	468.25217	-75.21540999999998	-112.4133	330.99823	49.176880000000004	67.01925999999999	335.03326	99.80385000000003	24.14710999999998	335.66373	176.91067000000004	68.02801999999998	335.91592	149.42206000000002	-74.64798000000002	329.73729	70.17163	132.21014999999997	341.14885	185.10682000000006	-57.246929999999985	330.05252	-91.48160999999999	128.74255	339.06828	-81.70927999999998	113.16987000000002	334.71802	-168.39928999999998	145.82836000000003	337.80734	-128.36426999999995	-14.690019999999988	329.42205	-99.11032999999999	217.89141000000004	344.11207	-141.60419999999993	
16	0.25	0.0	1249.97542	7.653891985579342E-14	28.560419999999983	1347.88785	131.3274900000001	69.66725000000001	1348.26613	-114.5569099999999	-15.383540000000012	1403.93688	101.56917000000008	18.40981000000001	1404.25212	-100.62345999999991	-52.266200000000005	1191.71973	43.12434000000006	-35.36952999999999	1191.90887	-58.00349999999994	-62.5429	1261.76526	-10.46584999999993	-40.28721	1352.11202	-6.746059999999923	-36.25219	1456.45527	-7.061299999999916	-39.71979	1551.71971	-9.015759999999911	104.02802	1743.82478	12.924690000000119	-32.91068	1729.51305	-11.411559999999897	-41.16988	1646.79502	-11.096319999999904	97.345	1630.52882	14.185640000000111	-27.92995	1778.81603	-9.394049999999895	49.17688	2015.87381	1.5761800000001294	43.94395999999999	1919.34842	64.11909000000011	39.97198000000001	1924.26611	-67.52363999999989	-9.64623	1925.71619	1.167347859381529E-13	-36.756570000000025	1748.49028	169.6602400000001	15.509630000000021	1763.62163	-179.1173299999999	-105.28896000000005	1629.52006	369.3940300000001	-60.21015000000004	1599.88784	367.88089000000014	33.35201000000005	1650.19957	-396.5043599999999	66.95621000000004	1612.62339	-377.3379899999999	-94.76007000000007	1521.01569	556.8336000000002	-120.73555000000007	1553.98942	570.0104800000001	-70.92819000000004	1600.83355	358.5498900000001	90.28371000000007	1533.24686	-568.9386799999999	79.81786000000007	1570.57085	-589.6812299999999	53.464100000000045	1615.71271	-373.74428999999986	-209.06479000000007	1472.21709	681.6672200000002	-138.6409700000001	1477.63916	642.4518100000001	-110.58493000000007	1520.25912	597.6251900000001	74.52189000000008	1503.74073	-740.8686199999999	92.93169000000009	1491.19432	-663.1943599999998	98.54290000000007	1529.33793	-607.2714199999999	-31.712780000000016	1220.02796	140.7845800000001	-47.663750000000014	876.29418	106.29772000000006	-28.245180000000005	876.60941	41.98949000000006	-1.3239900000000102	876.35723	82.90718000000005	7.061300000000018	1219.27139	-142.6759999999999	-7.628719999999987	875.60066	-106.86513999999994	-0.1891399999999951	876.9877	-40.035019999999946	33.73030000000001	876.9877	-75.40454999999994	10.33974999999999	839.53761	87.32049000000006	-85.74430000000001	472.035	96.52539000000002	-68.15411	470.90015	39.02627000000002	47.85289000000001	842.62693	-81.20489999999994	-25.02976999999998	473.54814	-134.54289999999997	-16.95971999999999	468.25217	-75.21540999999998	-112.35026	330.99823	49.23993000000001	67.08230999999999	335.03326	99.86690000000003	24.210159999999977	335.66373	176.97372000000001	68.09105999999998	335.91592	149.54815000000002	-74.58494000000002	329.73729	70.23467	132.21014999999997	341.14885	185.16987000000006	-57.183889999999984	330.05252	-91.41855999999999	128.86865	339.06828	-81.64622999999997	113.29597000000001	334.71802	-168.33623999999998	145.89141000000004	337.80734	-128.30121999999994	-14.563919999999987	329.42205	-99.04727999999999	218.01750000000004	344.11207	-141.54114999999993	
17	0.267	0.0	1249.97542	7.653891985579342E-14	28.560419999999983	1347.88785	131.3274900000001	69.79334000000001	1348.26613	-114.5569099999999	-15.383540000000012	1403.93688	101.56917000000008	18.535900000000012	1404.25212	-100.62345999999991	-52.329240000000006	1191.78278	43.12434000000006	-35.36952999999999	1191.90887	-58.00349999999994	-62.5429	1261.82831	-10.46584999999993	-40.22417	1352.17507	-6.746059999999923	-36.06305	1456.45527	-7.061299999999916	-39.53065	1551.78276	-8.952709999999911	104.46935	1743.69869	13.17688000000012	-32.46935	1729.51305	-11.222419999999897	-40.85464	1646.85806	-10.970229999999905	97.66024	1630.40272	14.374780000000111	-27.42557	1778.75298	-9.204899999999895	48.35727	2016.06295	1.9544700000001294	43.88090999999999	1919.41147	64.43432000000011	39.78284000000001	1924.45525	-67.20839999999988	-9.83538	1925.464	0.3152400000001167	-36.31523000000002	1748.42724	169.8493800000001	16.07706000000002	1763.68468	-178.9281899999999	-105.03677000000005	1629.26787	369.52012000000013	-60.02101000000004	1599.63565	367.9439400000001	33.79334000000005	1650.32566	-396.3152199999999	67.39754000000005	1612.74948	-377.21188999999987	-94.63397000000008	1520.6374	556.8336000000002	-120.60945000000007	1553.61113	570.0104800000001	-70.67600000000004	1600.64441	358.6129400000001	90.66199000000007	1533.436	-568.8125799999999	80.19614000000007	1570.75999	-589.5551399999999	53.905430000000045	1615.77575	-373.5551499999999	-209.06479000000007	1471.77576	681.6041700000001	-138.5779300000001	1477.19783	642.3887600000002	-110.52189000000007	1519.81779	597.6251900000001	74.90017000000009	1503.99292	-740.7425199999999	93.30998000000008	1491.32042	-663.0682699999999	98.92119000000007	1529.46402	-607.1453299999998	-31.775830000000017	1220.02796	140.7845800000001	-47.663750000000014	876.29418	106.36077000000006	-28.245180000000005	876.60941	42.05254000000006	-1.2609500000000102	876.35723	82.90718000000005	7.124340000000018	1219.20835	-142.61294999999993	-7.565669999999987	875.60066	-106.80209999999994	-0.0630499999999951	876.9877	-40.035019999999946	33.79334000000001	876.9877	-75.40454999999994	10.402799999999989	839.53761	87.32049000000006	-85.68126000000001	472.035	96.65148000000002	-68.09106	470.90015	39.08932000000002	47.97898000000001	842.62693	-81.14184999999995	-24.96671999999998	473.54814	-134.47984999999997	-16.89666999999999	468.25217	-75.15235999999997	-112.35026	330.99823	49.30297000000001	67.08230999999999	335.03326	99.92994000000003	24.210159999999977	335.66373	177.03677000000002	68.09105999999998	335.91592	149.61120000000003	-74.58494000000002	329.73729	70.29772	132.27319999999997	341.14885	185.23292000000006	-57.05778999999998	330.05252	-91.35550999999998	128.93169	339.06828	-81.58317999999997	113.35901000000001	334.71802	-168.27319999999997	145.95446000000004	337.80734	-128.23816999999994	-14.500869999999988	329.42205	-98.98422999999998	218.08055000000002	344.11207	-141.47809999999996	
18	0.283	0.0	1249.97542	7.653891985579342E-14	28.560419999999983	1347.88785	131.39054000000007	69.85639000000002	1348.20309	-114.4938599999999	-15.320490000000012	1403.93688	101.63222000000009	18.66200000000001	1404.25212	-100.56041999999991	-52.39229000000001	1191.78278	43.061290000000064	-35.36952999999999	1191.97192	-58.00349999999994	-62.5429	1261.82831	-10.46584999999993	-40.16112	1352.17507	-6.809109999999923	-35.93695	1456.51832	-6.998249999999915	-39.27846	1551.78276	-8.889669999999912	104.91068	1743.57259	13.492120000000119	-32.02802	1729.5761	-10.970229999999898	-40.47636	1646.92111	-10.781089999999905	97.97548	1630.27663	14.563920000000111	-26.92119	1778.68993	-8.952709999999895	47.53765	2016.25209	2.332750000000129	43.75480999999999	1919.53756	64.74956000000012	39.59369000000001	1924.58134	-66.89316999999988	-9.96147	1925.21182	0.6935200000001167	-35.81086000000002	1748.30114	170.10157000000012	16.644480000000023	1763.74773	-178.67599999999987	-104.72154000000005	1629.07873	369.64622000000014	-59.70578000000004	1599.38346	368.0700300000001	34.36077000000005	1650.45176	-396.1260799999999	67.90192000000005	1612.87558	-377.02274999999986	-94.44483000000007	1520.25912	556.8336000000002	-120.42031000000007	1553.23285	570.0735300000001	-70.36077000000004	1600.39222	358.7390400000001	91.10332000000007	1533.62514	-568.6864899999999	80.70052000000007	1570.94914	-589.4290399999999	54.40980000000004	1615.90185	-373.4290499999999	-208.8756500000001	1471.39748	681.6041700000001	-138.38878000000008	1476.7565	642.3887600000002	-110.26970000000007	1519.43951	597.6251900000001	75.46760000000009	1504.24511	-740.6164299999999	93.81436000000008	1491.57261	-662.9421699999999	99.42556000000008	1529.65317	-607.0192299999999	-31.775830000000017	1220.02796	140.7845800000001	-47.60070000000002	876.29418	106.36077000000006	-28.182140000000004	876.60941	42.05254000000006	-1.2609500000000102	876.35723	82.97022000000005	7.124340000000018	1219.20835	-142.61294999999993	-7.439579999999987	875.60066	-106.73904999999995	4.895155736258202E-15	876.9877	-39.971979999999945	33.91944000000001	876.9877	-75.34149999999994	10.402799999999989	839.53761	87.38353000000005	-85.61821000000002	472.035	96.71453000000001	-68.02802	470.90015	39.21541000000002	48.042030000000004	842.62693	-81.07880999999995	-24.840629999999983	473.54814	-134.41680999999997	-16.77057999999999	468.25217	-75.08930999999997	-112.28721	330.99823	49.42907000000001	67.14535999999998	335.03326	100.05604000000002	24.273199999999978	335.66373	177.16286000000002	68.15410999999999	335.91592	149.73730000000003	-74.52189000000001	329.73729	70.42381	132.33624999999998	341.14885	185.35901000000007	-56.994739999999986	330.05252	-91.29245999999999	128.99474	339.06828	-81.52013999999997	113.42206000000002	334.71802	-168.21014999999997	146.08055000000002	337.80734	-128.17512999999994	-14.437829999999988	329.42205	-98.92118999999998	218.14360000000002	344.11207	-141.41504999999995	
